<svg xmlns="http://www.w3.org/2000/svg" viewBox="0 0 477 112"><linearGradient id="97070560-4444-481c-9847-83d42f91dccb" x1="0%" x2="100%" y1="0%" y2="0%" gradientTransform="rotate(25)"><stop offset="0%" stop-color="#E9007F" stop-opacity="1"/><stop offset="100%" stop-color="#FEA134" stop-opacity="1"/></linearGradient><g id="420c1f74-7fb9-44d5-a8fd-048a876861cd" fill="#fff"><path d="M6.68 9.58C6.55 9.28 6.37 9.04 6.15 8.83C5.92 8.62 5.67 8.46 5.39 8.33C5.11 8.20 4.83 8.08 4.54 7.98C4.24 7.88 3.96 7.78 3.68 7.70C3.40 7.62 3.15 7.50 2.93 7.39C2.70 7.28 2.53 7.14 2.41 6.99C2.28 6.83 2.20 6.64 2.20 6.40C2.20 6.22 2.23 6.03 2.30 5.88C2.37 5.73 2.48 5.59 2.60 5.47C2.73 5.36 2.90 5.28 3.09 5.21C3.29 5.15 3.50 5.12 3.77 5.12C4.49 5.12 5.05 5.19 5.40 5.35C5.46 5.98 5.50 6.36 5.53 6.48C5.57 6.65 5.67 6.75 5.85 6.75L6.43 6.75L6.59 6.75L6.65 6.75L6.65 4.16C5.71 3.78 4.75 3.58 3.75 3.58C3.22 3.58 2.74 3.67 2.34 3.84C1.93 4.00 1.58 4.21 1.30 4.48C1.02 4.75 0.80 5.07 0.66 5.42C0.50 5.77 0.43 6.13 0.43 6.50C0.43 6.96 0.52 7.35 0.64 7.66C0.77 7.98 0.94 8.23 1.16 8.44C1.39 8.65 1.64 8.83 1.92 8.96C2.20 9.09 2.48 9.20 2.77 9.30C3.05 9.39 3.35 9.46 3.63 9.55C3.91 9.63 4.14 9.73 4.37 9.84C4.59 9.95 4.77 10.09 4.90 10.26C5.03 10.43 5.10 10.65 5.10 10.92C5.10 11.40 4.96 11.76 4.66 12.01C4.37 12.26 3.95 12.39 3.42 12.39C2.55 12.39 1.90 12.33 1.50 12.21C1.44 11.56 1.40 11.17 1.37 11.05C1.33 10.88 1.23 10.79 1.05 10.79L0.48 10.79L0.31 10.79L0.25 10.79L0.25 13.15L0.25 13.40C1.29 13.75 2.25 13.93 3.15 13.93L3.36 13.93C3.92 13.93 4.41 13.85 4.84 13.68C5.28 13.51 5.66 13.27 5.95 12.98C6.26 12.68 6.48 12.33 6.64 11.93C6.79 11.52 6.87 11.12 6.87 10.65C6.87 10.23 6.82 9.87 6.68 9.58ZM15.36 12.56C15.34 12.56 15.32 12.56 15.27 12.54C15.23 12.53 15.16 12.52 15.06 12.50C14.97 12.49 14.83 12.46 14.66 12.43L14.66 9.24C14.66 8.83 14.59 8.48 14.49 8.15C14.38 7.81 14.22 7.52 14.03 7.28C13.82 7.04 13.58 6.85 13.27 6.72C12.96 6.59 12.63 6.52 12.24 6.52C11.79 6.52 11.38 6.61 11.05 6.78C10.71 6.94 10.40 7.15 10.12 7.42L10.12 3.42L8.40 3.42L7.34 3.42L7.34 4.24C7.34 4.48 7.45 4.62 7.69 4.68C7.70 4.68 7.73 4.69 7.77 4.69C7.81 4.69 7.88 4.72 7.98 4.73C8.08 4.75 8.23 4.77 8.40 4.80L8.40 12.43C8.23 12.46 8.08 12.49 7.98 12.50C7.88 12.52 7.81 12.54 7.77 12.54C7.73 12.54 7.70 12.56 7.69 12.56C7.45 12.61 7.34 12.75 7.34 12.99L7.34 13.82L8.40 13.82L10.12 13.82L11.19 13.82L11.19 12.99C11.19 12.75 11.07 12.61 10.84 12.56C10.82 12.56 10.79 12.56 10.75 12.54C10.71 12.54 10.64 12.52 10.54 12.50C10.44 12.49 10.29 12.46 10.12 12.43L10.12 8.62C10.36 8.39 10.60 8.22 10.86 8.08C11.13 7.94 11.41 7.87 11.70 7.87C12.11 7.87 12.42 7.99 12.61 8.23C12.82 8.47 12.92 8.82 12.92 9.25L12.92 13.82L14.66 13.82L15.71 13.82L15.71 12.99C15.71 12.75 15.60 12.61 15.36 12.56ZM22.65 12.54C22.64 12.54 22.58 12.53 22.50 12.52C22.41 12.50 22.27 12.47 22.12 12.45L22.12 9.27C22.12 8.86 22.06 8.48 21.95 8.15C21.84 7.81 21.64 7.52 21.42 7.27C21.20 7.03 20.92 6.83 20.59 6.69C20.26 6.55 19.88 6.48 19.46 6.48C18.30 6.48 17.30 6.87 16.48 7.63L16.80 8.18C16.86 8.26 16.91 8.34 17.00 8.40C17.08 8.46 17.19 8.48 17.30 8.48C17.44 8.48 17.57 8.46 17.68 8.39C17.79 8.32 17.92 8.26 18.06 8.18C18.20 8.09 18.37 8.02 18.55 7.95C18.73 7.88 18.97 7.85 19.25 7.85C19.64 7.85 19.94 7.97 20.13 8.20C20.33 8.44 20.44 8.79 20.44 9.28L20.44 9.70C19.63 9.70 18.93 9.77 18.38 9.91C17.84 10.05 17.40 10.23 17.07 10.44C16.73 10.65 16.49 10.89 16.35 11.16C16.21 11.42 16.14 11.70 16.14 11.97C16.14 12.29 16.20 12.57 16.30 12.81C16.39 13.05 16.55 13.26 16.73 13.43C16.91 13.59 17.14 13.71 17.39 13.79C17.64 13.87 17.92 13.92 18.23 13.92C18.48 13.92 18.72 13.89 18.93 13.85C19.14 13.80 19.33 13.75 19.52 13.66C19.70 13.58 19.89 13.48 20.06 13.36C20.24 13.23 20.41 13.09 20.59 12.92L20.75 13.43C20.79 13.58 20.86 13.69 20.96 13.73C21.06 13.79 21.18 13.80 21.35 13.80L21.94 13.80L22.12 13.80L23.00 13.80L23.00 12.98C23.00 12.74 22.89 12.60 22.65 12.54ZM20.44 11.96C20.31 12.08 20.19 12.19 20.06 12.29C19.94 12.39 19.81 12.46 19.68 12.53C19.56 12.60 19.40 12.66 19.25 12.68C19.10 12.71 18.94 12.73 18.76 12.73C18.47 12.73 18.24 12.66 18.06 12.53C17.88 12.40 17.79 12.18 17.79 11.87C17.79 11.72 17.84 11.56 17.92 11.44C18.00 11.31 18.14 11.20 18.35 11.10C18.56 11.00 18.84 10.92 19.18 10.85C19.52 10.78 19.94 10.75 20.44 10.75ZM28.28 6.51C27.85 6.51 27.47 6.64 27.12 6.89C26.77 7.14 26.47 7.49 26.22 7.94L26.11 7.07C26.08 6.92 26.04 6.80 25.97 6.73C25.90 6.66 25.79 6.64 25.61 6.64L24.58 6.64L24.58 6.64L23.53 6.64L23.53 7.46C23.53 7.70 23.65 7.84 23.88 7.90C24.00 7.91 23.98 7.91 24.58 8.02L24.58 12.43C23.98 12.54 24.00 12.54 23.88 12.56C23.65 12.61 23.53 12.75 23.53 12.99L23.53 13.82L24.58 13.82L26.32 13.82L26.32 13.82L27.37 13.82L27.37 12.99C27.37 12.75 27.26 12.61 27.02 12.56C26.91 12.54 26.92 12.54 26.32 12.43L26.32 9.35C26.50 8.97 26.71 8.67 26.96 8.47C27.22 8.27 27.52 8.18 27.89 8.18C28.08 8.18 28.25 8.20 28.38 8.23C28.50 8.26 28.59 8.27 28.66 8.27C28.74 8.27 28.81 8.25 28.85 8.22C28.90 8.19 28.92 8.13 28.94 8.05L29.16 6.75C28.92 6.58 28.63 6.51 28.28 6.51ZM33.03 6.52C32.49 6.52 31.99 6.62 31.57 6.80C31.15 6.99 30.79 7.24 30.49 7.56C30.20 7.88 29.96 8.26 29.81 8.69C29.65 9.13 29.57 9.58 29.57 10.07C29.57 10.70 29.65 11.26 29.83 11.73C30.02 12.21 30.27 12.61 30.59 12.94C30.91 13.26 31.28 13.51 31.71 13.68C32.14 13.85 32.59 13.92 33.10 13.92C33.35 13.92 33.61 13.90 33.88 13.86C34.15 13.82 34.41 13.76 34.68 13.68C34.93 13.59 35.18 13.47 35.42 13.31C35.66 13.16 35.87 12.96 36.06 12.74L35.56 12.11C35.52 12.05 35.49 12.03 35.43 12.00C35.38 11.97 35.31 11.96 35.24 11.96C35.13 11.96 35.03 11.98 34.92 12.05C34.80 12.12 34.66 12.18 34.51 12.26C34.36 12.35 34.19 12.42 33.98 12.49C33.78 12.56 33.54 12.59 33.26 12.59C32.69 12.59 32.24 12.42 31.89 12.07C31.54 11.72 31.35 11.19 31.29 10.44L35.73 10.44C35.81 10.44 35.87 10.44 35.92 10.42C35.98 10.39 36.02 10.36 36.05 10.30C36.08 10.26 36.09 10.19 36.11 10.11C36.12 10.02 36.13 9.90 36.13 9.77C36.13 9.25 36.05 8.81 35.90 8.40C35.74 7.99 35.53 7.66 35.25 7.38C34.97 7.10 34.65 6.87 34.27 6.73C33.89 6.59 33.47 6.52 33.03 6.52ZM33.05 7.76C33.31 7.76 33.53 7.81 33.73 7.90C33.92 7.98 34.08 8.09 34.20 8.25C34.33 8.40 34.43 8.57 34.48 8.76C34.54 8.96 34.58 9.17 34.58 9.39L31.33 9.39C31.42 8.88 31.60 8.47 31.88 8.19C32.16 7.91 32.55 7.76 33.05 7.76ZM43.11 8.58C43.41 8.47 43.68 8.34 43.90 8.19C44.13 8.04 44.31 7.88 44.46 7.69C44.60 7.50 44.73 7.29 44.80 7.07C44.87 6.85 44.90 6.62 44.90 6.38C44.90 5.96 44.83 5.61 44.69 5.28C44.55 4.94 44.34 4.66 44.03 4.42C43.74 4.19 43.34 4.00 42.87 3.88C42.39 3.75 41.83 3.70 41.17 3.70L37.69 3.70L36.62 3.70L36.62 4.52C36.62 4.76 36.74 4.90 36.97 4.96C36.99 4.96 37.02 4.97 37.06 4.97C37.10 4.97 37.17 5.00 37.27 5.01C37.37 5.03 37.52 5.05 37.69 5.08L37.69 12.43C37.52 12.46 37.37 12.49 37.27 12.50C37.17 12.52 37.10 12.54 37.06 12.54C37.02 12.54 36.99 12.56 36.97 12.56C36.74 12.61 36.62 12.75 36.62 12.99L36.62 13.82L37.69 13.82L41.51 13.82C42.10 13.82 42.62 13.75 43.08 13.59C43.54 13.44 43.92 13.24 44.23 12.98C44.53 12.71 44.77 12.39 44.94 12.03C45.11 11.66 45.19 11.27 45.19 10.84C45.19 9.65 44.49 8.89 43.11 8.58ZM39.56 5.15L41.17 5.15C41.80 5.15 42.28 5.26 42.57 5.49C42.87 5.71 43.02 6.08 43.02 6.61C43.02 7.11 42.87 7.49 42.53 7.73C42.20 7.97 41.72 8.08 41.08 8.08L39.56 8.08ZM43.23 11.40C43.18 11.58 43.06 11.75 42.92 11.89C42.78 12.03 42.60 12.14 42.36 12.22C42.13 12.31 41.83 12.35 41.48 12.35L39.56 12.35L39.56 9.38L41.47 9.38C41.80 9.38 42.08 9.41 42.32 9.48C42.56 9.55 42.74 9.63 42.90 9.76C43.05 9.88 43.15 10.04 43.22 10.21C43.29 10.39 43.33 10.57 43.33 10.79C43.33 11.00 43.30 11.21 43.23 11.40ZM49.41 12.56C49.39 12.56 49.36 12.54 49.32 12.54C49.28 12.54 49.21 12.52 49.11 12.50C49.01 12.49 48.86 12.46 48.69 12.43L48.69 6.64L46.97 6.64L45.91 6.64L45.91 7.46C45.91 7.70 46.02 7.84 46.26 7.90C46.27 7.90 46.30 7.91 46.34 7.91C46.38 7.91 46.45 7.94 46.55 7.95C46.65 7.97 46.80 7.99 46.97 8.02L46.97 12.43C46.80 12.46 46.65 12.49 46.55 12.50C46.45 12.52 46.38 12.53 46.34 12.54C46.30 12.54 46.27 12.56 46.26 12.56C46.02 12.61 45.91 12.75 45.91 12.99L45.91 13.82L46.97 13.82L48.69 13.82L49.76 13.82L49.76 12.99C49.76 12.75 49.64 12.61 49.41 12.56ZM48.96 4.54C48.96 4.38 48.92 4.24 48.86 4.10C48.80 3.96 48.72 3.85 48.62 3.75C48.52 3.65 48.41 3.58 48.27 3.53C48.13 3.47 47.99 3.43 47.84 3.43C47.68 3.43 47.54 3.47 47.40 3.53C47.26 3.58 47.17 3.65 47.07 3.75C46.97 3.85 46.89 3.96 46.83 4.10C46.77 4.24 46.75 4.38 46.75 4.54C46.75 4.69 46.77 4.83 46.83 4.96C46.89 5.08 46.97 5.21 47.07 5.31C47.17 5.40 47.26 5.49 47.40 5.54C47.54 5.60 47.68 5.63 47.84 5.63C47.99 5.63 48.13 5.60 48.27 5.54C48.41 5.49 48.52 5.40 48.62 5.31C48.72 5.21 48.80 5.08 48.86 4.96C48.92 4.83 48.96 4.69 48.96 4.54ZM53.19 13.93C53.54 13.93 53.87 13.87 54.19 13.76C54.52 13.65 54.81 13.50 55.06 13.29L54.54 12.45C54.50 12.39 54.47 12.36 54.45 12.33C54.42 12.31 54.36 12.31 54.31 12.31C54.26 12.31 54.24 12.31 54.19 12.33C54.15 12.36 54.10 12.39 54.04 12.42C53.98 12.45 53.93 12.47 53.86 12.50C53.79 12.53 53.70 12.53 53.59 12.53C53.41 12.53 53.26 12.47 53.14 12.35C53.03 12.22 52.98 12.05 52.98 11.83L52.98 7.94L54.87 7.94L54.87 6.71L52.98 6.71L52.98 4.44L52.08 4.44C51.98 4.44 51.88 4.47 51.81 4.52C51.74 4.58 51.70 4.63 51.69 4.73L51.32 6.69L50.16 6.87L50.16 7.57C50.16 7.70 50.20 7.78 50.27 7.84C50.34 7.90 50.41 7.94 50.51 7.94L51.24 7.94L51.24 11.94C51.24 12.56 51.41 13.05 51.74 13.40C52.08 13.75 52.57 13.93 53.19 13.93ZM60.63 10.79C60.54 10.58 60.41 10.42 60.24 10.28C60.07 10.12 59.89 10.01 59.68 9.91C59.47 9.81 59.25 9.72 59.02 9.65C58.80 9.58 58.59 9.51 58.38 9.45C58.17 9.39 57.99 9.31 57.82 9.23C57.65 9.14 57.53 9.07 57.43 8.96C57.33 8.85 57.27 8.72 57.27 8.57C57.27 8.33 57.37 8.13 57.57 7.99C57.76 7.85 58.03 7.78 58.37 7.78C58.69 7.78 59.02 7.83 59.21 7.88C59.26 8.43 59.29 8.60 59.30 8.67C59.35 8.83 59.44 8.93 59.63 8.93L60.20 8.93L60.37 8.93L60.42 8.93L60.42 6.90L60.44 6.90C59.43 6.59 59.04 6.52 58.34 6.52C57.89 6.52 57.51 6.59 57.18 6.71C56.84 6.82 56.55 6.99 56.32 7.18C56.10 7.38 55.92 7.62 55.80 7.88C55.69 8.15 55.64 8.43 55.64 8.72C55.64 9.04 55.69 9.31 55.79 9.53C55.89 9.76 56.01 9.94 56.18 10.09C56.35 10.25 56.55 10.37 56.76 10.47C56.97 10.57 57.18 10.67 57.40 10.74C57.62 10.81 57.85 10.88 58.06 10.95C58.27 11.00 58.45 11.07 58.62 11.16C58.79 11.24 58.93 11.33 59.02 11.44C59.12 11.55 59.16 11.68 59.16 11.84C59.16 11.96 59.15 12.07 59.11 12.18C59.07 12.29 59.00 12.36 58.90 12.45C58.80 12.53 58.69 12.59 58.53 12.64C58.39 12.68 58.21 12.71 58.00 12.71C57.69 12.71 57.25 12.71 56.87 12.60C56.81 12.04 56.78 11.84 56.77 11.77C56.73 11.61 56.63 11.51 56.45 11.51L55.87 11.51L55.71 11.51L55.64 11.51L55.64 12.84L55.64 13.54L55.64 13.54C56.15 13.73 57.02 13.93 57.92 13.93C58.38 13.93 58.80 13.87 59.15 13.75C59.51 13.64 59.81 13.47 60.05 13.26C60.28 13.05 60.47 12.80 60.59 12.50C60.72 12.21 60.79 11.89 60.79 11.54C60.79 11.24 60.73 11.00 60.63 10.79Z" transform="matrix(5.70884859118442,0,0,5.70884859118442,129.68388806026167,-19.524261663726982)"/></g><g id="e3398d11-d7c3-42e7-a7ed-8dfccbdc7e65" fill="#fff" stroke="none"><path d="M87.5 75c-3.039 0-5.725 1.221-7.886 3.016l-19.056-13.6c1.209-2.49 1.941-5.225 1.941-8.166 0-4.041-1.318-7.775-3.491-10.828l22.29-22.302C83.154 24.207 85.193 25 87.5 25c6.909 0 12.5-5.591 12.5-12.5S94.409 0 87.5 0 75 5.591 75 12.5c0 2.307.793 4.346 1.88 6.201L54.59 41.004c-3.076-2.197-6.787-3.504-10.84-3.504-7.153 0-13.306 4.064-16.467 9.973l-15.052-5.029C11.621 39.637 9.24 37.5 6.25 37.5 2.795 37.5 0 40.295 0 43.75S2.795 50 6.25 50c1.574 0 2.979-.635 4.077-1.6l14.966 4.993c-.147.941-.293 1.88-.293 2.857C25 66.602 33.398 75 43.75 75c5.151 0 9.826-2.088 13.221-5.457l18.933 13.514C75.366 84.448 75 85.926 75 87.5c0 6.896 5.591 12.5 12.5 12.5S100 94.396 100 87.5 94.409 75 87.5 75z" transform="matrix(1.1111111111111112,0,0,1.1111111111111112,0.44444444444444287,0.44444444444444287)"/></g><g id="aaa114f5-eaee-4ef4-8822-6b1968fae4b5" fill="#fff"><path transform="matrix(Infinity,0,0,Infinity,0,0)"/></g></svg>