<svg data-v-29081953="" xmlns="http://www.w3.org/2000/svg" viewBox="0 0 300 300"><!----><defs data-v-29081953=""><linearGradient data-v-29081953="" gradientTransform="rotate(25)" id="53445e54-8cea-45d4-8605-2ffb3a27bac5" x1="0%" y1="0%" x2="100%" y2="0%"><stop data-v-29081953="" offset="0%" stop-color="#E9007F" stop-opacity="1"></stop><stop data-v-29081953="" offset="100%" stop-color="#FEA134" stop-opacity="1"></stop></linearGradient></defs><rect data-v-29081953="" fill="url(#53445e54-8cea-45d4-8605-2ffb3a27bac5)" x="0" y="0" width="300px" height="300px" class="logo-background-square"></rect><!----><defs data-v-29081953=""><!----></defs><g data-v-29081953="" id="7833f417-199a-4c7b-ab37-51bfe4bc34b4" fill="#ffffff" stroke="none" transform="matrix(2.2,0,0,2.2,39.999999999999986,39.999999999999986)"><path d="M87.5 75c-3.039 0-5.725 1.221-7.886 3.016l-19.056-13.6c1.209-2.49 1.941-5.225 1.941-8.166 0-4.041-1.318-7.775-3.491-10.828l22.29-22.302C83.154 24.207 85.193 25 87.5 25c6.909 0 12.5-5.591 12.5-12.5S94.409 0 87.5 0 75 5.591 75 12.5c0 2.307.793 4.346 1.88 6.201L54.59 41.004c-3.076-2.197-6.787-3.504-10.84-3.504-7.153 0-13.306 4.064-16.467 9.973l-15.052-5.029C11.621 39.637 9.24 37.5 6.25 37.5 2.795 37.5 0 40.295 0 43.75S2.795 50 6.25 50c1.574 0 2.979-.635 4.077-1.6l14.966 4.993c-.147.941-.293 1.88-.293 2.857C25 66.602 33.398 75 43.75 75c5.151 0 9.826-2.088 13.221-5.457l18.933 13.514C75.366 84.448 75 85.926 75 87.5c0 6.896 5.591 12.5 12.5 12.5S100 94.396 100 87.5 94.409 75 87.5 75z"></path></g><!----></svg>